<svg width="142" height="19" viewBox="0 0 142 19" fill="none" xmlns="http://www.w3.org/2000/svg">
<path d="M12 12.076C12 12.86 11.36 13.5 10.576 13.5C9.792 13.5 9.16 12.86 9.16 12.076C9.16 11.292 9.792 10.66 10.576 10.66C11.36 10.66 12 11.292 12 12.076ZM5.464 8.38C6.248 8.38 6.88 7.748 6.88 6.964C6.88 6.172 6.248 5.54 5.464 5.54C4.672 5.54 4.04 6.172 4.04 6.964C4.04 7.748 4.672 8.38 5.464 8.38ZM4 12.324L5.2 13.524L12.024 6.7L10.824 5.5L4 12.324ZM16 9.5C16 13.9 12.4 17.5 8 17.5C3.6 17.5 0 13.9 0 9.5C0 5.1 3.6 1.5 8 1.5C12.4 1.5 16 5.1 16 9.5ZM14.4 9.5C14.4 5.972 11.528 3.1 8 3.1C4.472 3.1 1.6 5.972 1.6 9.5C1.6 13.028 4.472 15.9 8 15.9C11.528 15.9 14.4 13.028 14.4 9.5Z" fill="#6D6C70"/>
<path d="M29.376 15V14.664C29.8667 14.664 30.176 14.6 30.304 14.472L29.408 12.024H26.336L25.504 14.376C25.6107 14.568 25.9413 14.664 26.496 14.664V15H23.872V14.664C24.4693 14.664 24.8053 14.552 24.88 14.328L27.984 5.64H28.752L31.856 14.328C31.9307 14.552 32.272 14.664 32.88 14.664V15H29.376ZM27.856 7.768L26.528 11.496H29.216L27.856 7.768ZM33.2304 15V14.664C33.8064 14.664 34.1424 14.5573 34.2384 14.344V8.936C33.577 8.88267 33.241 8.856 33.2304 8.856V8.488C33.433 8.488 33.8277 8.376 34.4144 8.152C35.0117 7.91733 35.433 7.8 35.6784 7.8V8.52C36.2437 8.04 36.8357 7.8 37.4544 7.8C38.7344 7.8 39.5557 8.10933 39.9184 8.728C40.5157 8.10933 41.1824 7.8 41.9184 7.8C43.7104 7.8 44.6064 8.408 44.6064 9.624V14.344C44.7024 14.5573 45.0384 14.664 45.6144 14.664V15H42.1584V14.664C42.7344 14.664 43.0704 14.5573 43.1664 14.344V10.216C43.1664 9.52267 43.065 9.03733 42.8624 8.76C42.6597 8.48267 42.313 8.344 41.8224 8.344C41.193 8.344 40.6117 8.6 40.0784 9.112C40.121 9.25067 40.1424 9.42133 40.1424 9.624V14.344C40.2384 14.5573 40.5744 14.664 41.1504 14.664V15H37.6944V14.664C38.2704 14.664 38.6064 14.5573 38.7024 14.344V10.216C38.7024 9.52267 38.601 9.03733 38.3984 8.76C38.1957 8.48267 37.849 8.344 37.3584 8.344C36.7504 8.344 36.1904 8.57867 35.6784 9.048V14.344C35.7744 14.5573 36.1104 14.664 36.6864 14.664V15H33.2304ZM47.6983 9.144C47.8476 9.144 47.9756 9.19733 48.0823 9.304C48.1996 9.41067 48.2582 9.576 48.2582 9.8C48.2582 9.98133 48.1836 10.12 48.0343 10.216C47.8956 10.312 47.7303 10.36 47.5383 10.36C47.3356 10.36 47.1703 10.2907 47.0423 10.152C46.9143 10.0027 46.8503 9.80533 46.8503 9.56C46.8503 9.00533 47.0796 8.57333 47.5383 8.264C47.9969 7.95467 48.6476 7.8 49.4903 7.8C50.4823 7.8 51.2076 8.04533 51.6663 8.536C52.1356 9.02667 52.3703 9.67733 52.3703 10.488V13.656C52.3703 13.9973 52.4236 14.248 52.5303 14.408C52.6476 14.568 52.7863 14.648 52.9463 14.648C53.0849 14.648 53.2076 14.6107 53.3143 14.536C53.4316 14.4613 53.4903 14.3707 53.4903 14.264H53.7783C53.7783 14.5627 53.6663 14.7813 53.4423 14.92C53.2289 15.0587 52.8503 15.128 52.3063 15.128C51.7729 15.128 51.3943 14.9093 51.1703 14.472C50.5409 14.9307 49.7569 15.16 48.8183 15.16C47.2183 15.16 46.4183 14.5093 46.4183 13.208C46.4183 12.9307 46.5143 12.68 46.7063 12.456C46.9089 12.232 47.1969 12.0453 47.5703 11.896C47.9436 11.7467 48.2956 11.6293 48.6263 11.544C48.9569 11.448 49.3676 11.3467 49.8583 11.24C50.3596 11.1227 50.7169 11.032 50.9303 10.968C50.9303 10.072 50.8129 9.416 50.5783 9C50.3436 8.584 49.9276 8.376 49.3303 8.376C48.3703 8.376 47.8263 8.632 47.6983 9.144ZM51.0263 14.072C50.9623 13.8373 50.9303 13.5493 50.9303 13.208V11.32C50.8129 11.3627 50.6103 11.4213 50.3223 11.496C50.0449 11.5707 49.8156 11.6347 49.6343 11.688C49.4636 11.7413 49.2556 11.8213 49.0103 11.928C48.7649 12.0347 48.5729 12.1413 48.4343 12.248C48.2956 12.3547 48.1729 12.4987 48.0663 12.68C47.9596 12.8507 47.9062 13.0373 47.9062 13.24C47.9062 13.752 48.0023 14.1093 48.1943 14.312C48.3969 14.5147 48.6956 14.616 49.0903 14.616C49.7943 14.616 50.4396 14.4347 51.0263 14.072ZM59.8326 15H53.9126L58.1526 8.44H55.0806C54.8673 8.536 54.7606 8.872 54.7606 9.448H54.4246V7.96H59.9606L55.7206 14.52H59.1766C59.39 14.424 59.4966 14.088 59.4966 13.512H59.8326V15ZM60.9335 15V14.664C61.5095 14.664 61.8455 14.5573 61.9415 14.344V8.936C61.2802 8.88267 60.9442 8.856 60.9335 8.856V8.488C61.1362 8.488 61.5308 8.376 62.1175 8.152C62.7148 7.91733 63.1362 7.8 63.3815 7.8V14.344C63.4775 14.5573 63.8135 14.664 64.3895 14.664V15H60.9335ZM62.6135 6.776C62.3788 6.776 62.1708 6.69067 61.9895 6.52C61.8188 6.33867 61.7335 6.10933 61.7335 5.832C61.7335 5.58667 61.8082 5.37333 61.9575 5.192C62.1175 5.01067 62.3202 4.92 62.5655 4.92C62.8002 4.92 63.0082 5.01067 63.1895 5.192C63.3708 5.37333 63.4615 5.60267 63.4615 5.88C63.4615 6.12533 63.3815 6.33867 63.2215 6.52C63.0615 6.69067 62.8588 6.776 62.6135 6.776ZM65.2148 15V14.664C65.7908 14.664 66.1268 14.5573 66.2228 14.344V8.936C65.5614 8.88267 65.2254 8.856 65.2148 8.856V8.488C65.4174 8.488 65.8121 8.376 66.3988 8.152C66.9961 7.91733 67.4174 7.8 67.6628 7.8V8.536C68.2388 8.04533 68.8734 7.8 69.5668 7.8C70.5588 7.8 71.2734 7.98667 71.7108 8.36C72.1588 8.72267 72.3828 9.29333 72.3828 10.072V14.344C72.4788 14.5573 72.8148 14.664 73.3908 14.664V15H69.9348V14.664C70.5108 14.664 70.8468 14.5573 70.9428 14.344V9.96C70.9428 8.88267 70.4521 8.344 69.4708 8.344C68.7988 8.344 68.1961 8.57867 67.6628 9.048V14.344C67.7588 14.5573 68.0948 14.664 68.6708 14.664V15H65.2148ZM80.8258 7.8V14.536C80.8258 15.6347 80.5591 16.52 80.0258 17.192C79.5031 17.864 78.7351 18.2 77.7218 18.2C76.8151 18.2 76.0844 18.0453 75.5298 17.736C74.9858 17.4267 74.7138 17.1013 74.7138 16.76C74.7138 16.5147 74.7778 16.3173 74.9058 16.168C75.0338 16.0293 75.1991 15.96 75.4018 15.96C75.5938 15.96 75.7591 16.008 75.8978 16.104C76.0471 16.2 76.1218 16.3387 76.1218 16.52C76.1218 16.8613 75.9884 17.0853 75.7218 17.192C76.0098 17.48 76.6231 17.624 77.5618 17.624C78.6604 17.624 79.2631 16.6427 79.3698 14.68C78.8791 15 78.2498 15.16 77.4818 15.16C77.1298 15.16 76.7778 15.1067 76.4258 15C76.0844 14.8827 75.7378 14.696 75.3858 14.44C75.0444 14.184 74.7618 13.8053 74.5378 13.304C74.3244 12.792 74.2178 12.1947 74.2178 11.512C74.2178 10.3173 74.5484 9.4 75.2098 8.76C75.8818 8.12 76.7564 7.8 77.8338 7.8C78.5058 7.8 79.0924 7.97067 79.5938 8.312C80.1378 7.97067 80.5484 7.8 80.8258 7.8ZM79.3858 14.152V13.96V8.68C79.0018 8.456 78.5164 8.344 77.9298 8.344C77.3431 8.344 76.8311 8.62667 76.3938 9.192C75.9564 9.74667 75.7378 10.52 75.7378 11.512C75.7378 12.4507 75.9138 13.2027 76.2658 13.768C76.6178 14.3333 77.0764 14.616 77.6418 14.616C78.3458 14.616 78.9271 14.4613 79.3858 14.152ZM86.422 15V14.664C86.998 14.664 87.334 14.5573 87.43 14.344V6.296C87.334 6.08267 86.998 5.976 86.422 5.976V5.64H90.102C91.5207 5.64 92.662 6.072 93.526 6.936C94.39 7.78933 94.822 8.90933 94.822 10.296C94.822 11.6827 94.4007 12.8133 93.558 13.688C92.7153 14.5627 91.6273 15 90.294 15H86.422ZM88.902 6.104V14.456H90.294C90.6353 14.456 90.966 14.3813 91.286 14.232C91.6167 14.072 91.9313 13.8373 92.23 13.528C92.5287 13.2187 92.7687 12.7867 92.95 12.232C93.1313 11.6773 93.222 11.0373 93.222 10.312C93.222 8.92533 92.9073 7.88 92.278 7.176C91.6593 6.46133 90.934 6.104 90.102 6.104H88.902ZM97.6753 11.144C97.6859 12.04 97.9419 12.8347 98.4433 13.528C98.9553 14.2107 99.5259 14.552 100.155 14.552C101.083 14.552 101.83 14.2 102.395 13.496L102.779 13.688C102.47 14.2 102.065 14.5733 101.563 14.808C101.073 15.0427 100.422 15.16 99.6113 15.16C99.2059 15.16 98.8166 15.1013 98.4433 14.984C98.0699 14.856 97.7019 14.6533 97.3393 14.376C96.9766 14.088 96.6886 13.6667 96.4753 13.112C96.2619 12.5573 96.1553 11.896 96.1553 11.128C96.1553 10.1893 96.4433 9.4 97.0193 8.76C97.6059 8.12 98.4166 7.8 99.4513 7.8C100.582 7.8 101.425 8.12 101.979 8.76C102.534 9.38933 102.811 10.184 102.811 11.144H97.6753ZM97.6913 10.648H101.243C101.179 9.88 101.014 9.29333 100.747 8.888C100.491 8.48267 100.038 8.28 99.3873 8.28C99.0139 8.28 98.6513 8.49867 98.2993 8.936C97.9579 9.37333 97.7553 9.944 97.6913 10.648ZM105.214 9.144C105.363 9.144 105.491 9.19733 105.598 9.304C105.715 9.41067 105.774 9.576 105.774 9.8C105.774 9.98133 105.699 10.12 105.55 10.216C105.411 10.312 105.246 10.36 105.054 10.36C104.851 10.36 104.686 10.2907 104.558 10.152C104.43 10.0027 104.366 9.80533 104.366 9.56C104.366 9.00533 104.595 8.57333 105.054 8.264C105.513 7.95467 106.163 7.8 107.006 7.8C107.998 7.8 108.723 8.04533 109.182 8.536C109.651 9.02667 109.886 9.67733 109.886 10.488V13.656C109.886 13.9973 109.939 14.248 110.046 14.408C110.163 14.568 110.302 14.648 110.462 14.648C110.601 14.648 110.723 14.6107 110.83 14.536C110.947 14.4613 111.006 14.3707 111.006 14.264H111.294C111.294 14.5627 111.182 14.7813 110.958 14.92C110.745 15.0587 110.366 15.128 109.822 15.128C109.289 15.128 108.91 14.9093 108.686 14.472C108.057 14.9307 107.273 15.16 106.334 15.16C104.734 15.16 103.934 14.5093 103.934 13.208C103.934 12.9307 104.03 12.68 104.222 12.456C104.425 12.232 104.713 12.0453 105.086 11.896C105.459 11.7467 105.811 11.6293 106.142 11.544C106.473 11.448 106.883 11.3467 107.374 11.24C107.875 11.1227 108.233 11.032 108.446 10.968C108.446 10.072 108.329 9.416 108.094 9C107.859 8.584 107.443 8.376 106.846 8.376C105.886 8.376 105.342 8.632 105.214 9.144ZM108.542 14.072C108.478 13.8373 108.446 13.5493 108.446 13.208V11.32C108.329 11.3627 108.126 11.4213 107.838 11.496C107.561 11.5707 107.331 11.6347 107.15 11.688C106.979 11.7413 106.771 11.8213 106.526 11.928C106.281 12.0347 106.089 12.1413 105.95 12.248C105.811 12.3547 105.689 12.4987 105.582 12.68C105.475 12.8507 105.422 13.0373 105.422 13.24C105.422 13.752 105.518 14.1093 105.71 14.312C105.913 14.5147 106.211 14.616 106.606 14.616C107.31 14.616 107.955 14.4347 108.542 14.072ZM111.492 15V14.664C112.068 14.664 112.404 14.5573 112.5 14.344V6.056C111.839 6.00267 111.503 5.976 111.492 5.976V5.608C111.695 5.608 112.09 5.496 112.676 5.272C113.274 5.03733 113.695 4.92 113.94 4.92V14.344C114.036 14.5573 114.372 14.664 114.948 14.664V15H111.492ZM118.593 14.68C118.892 14.68 119.217 14.584 119.569 14.392C119.932 14.2 120.113 13.912 120.113 13.528C120.113 12.9093 119.479 12.376 118.209 11.928C117.9 11.8213 117.644 11.72 117.441 11.624C117.249 11.528 117.036 11.3947 116.801 11.224C116.567 11.0533 116.391 10.8453 116.273 10.6C116.156 10.3547 116.097 10.0667 116.097 9.736C116.097 9.13867 116.316 8.66933 116.753 8.328C117.191 7.976 117.719 7.8 118.337 7.8C118.7 7.8 119.068 7.88 119.441 8.04C119.825 8.2 120.044 8.28 120.097 8.28C120.225 8.28 120.289 8.17333 120.289 7.96H120.657V9.88H120.305C120.241 9.432 120.023 9.05333 119.649 8.744C119.287 8.43467 118.865 8.28 118.385 8.28C118.044 8.28 117.756 8.36 117.521 8.52C117.297 8.68 117.185 8.89867 117.185 9.176C117.185 9.336 117.217 9.48533 117.281 9.624C117.345 9.752 117.409 9.85867 117.473 9.944C117.537 10.0187 117.655 10.104 117.825 10.2C118.007 10.296 118.14 10.3653 118.225 10.408C118.321 10.44 118.487 10.4987 118.721 10.584C118.967 10.6693 119.132 10.728 119.217 10.76C119.772 10.9733 120.247 11.2773 120.641 11.672C121.036 12.056 121.233 12.504 121.233 13.016C121.233 13.6667 120.972 14.1893 120.449 14.584C119.927 14.968 119.265 15.16 118.465 15.16C118.081 15.16 117.708 15.0693 117.345 14.888C116.983 14.7067 116.78 14.616 116.737 14.616C116.673 14.616 116.599 14.6587 116.513 14.744C116.428 14.8293 116.385 14.9147 116.385 15H116.001V12.744H116.353C116.428 13.288 116.679 13.7467 117.105 14.12C117.543 14.4933 118.039 14.68 118.593 14.68Z" fill="#6D6C70"/>
<path d="M141.468 6.74742C141.391 6.66902 141.298 6.60679 141.196 6.56433C141.094 6.52186 140.985 6.5 140.875 6.5C140.764 6.5 140.655 6.52186 140.553 6.56433C140.451 6.60679 140.358 6.66902 140.281 6.74742L136.45 10.5784C136.372 10.6568 136.279 10.719 136.178 10.7615C136.076 10.8039 135.966 10.8258 135.856 10.8258C135.745 10.8258 135.636 10.8039 135.534 10.7615C135.432 10.719 135.34 10.6568 135.262 10.5784L131.431 6.74742C131.353 6.66902 131.261 6.60679 131.159 6.56433C131.057 6.52186 130.948 6.5 130.837 6.5C130.727 6.5 130.617 6.52186 130.515 6.56433C130.414 6.60679 130.321 6.66902 130.243 6.74742C130.087 6.90414 130 7.11614 130 7.33712C130 7.5581 130.087 7.7701 130.243 7.92682L134.083 11.7661C134.553 12.2361 135.191 12.5 135.856 12.5C136.521 12.5 137.159 12.2361 137.629 11.7661L141.468 7.92682C141.624 7.7701 141.712 7.5581 141.712 7.33712C141.712 7.11614 141.624 6.90414 141.468 6.74742Z" fill="#6D6C70" fill-opacity="0.4"/>
</svg>
