<svg width="65" height="60" viewBox="0 0 65 60" fill="none" xmlns="http://www.w3.org/2000/svg">
<circle cx="30" cy="30" r="30" fill="#EFEFEF"/>
<path d="M37.5 25H35C35 23.6739 34.4732 22.4021 33.5355 21.4645C32.5979 20.5268 31.3261 20 30 20C28.6739 20 27.4021 20.5268 26.4645 21.4645C25.5268 22.4021 25 23.6739 25 25H22.5C21.837 25 21.2011 25.2634 20.7322 25.7322C20.2634 26.2011 20 26.837 20 27.5V35.8333C20.0013 36.938 20.4407 37.997 21.2218 38.7782C22.003 39.5593 23.062 39.9987 24.1667 40H35.8333C36.938 39.9987 37.997 39.5593 38.7782 38.7782C39.5593 37.997 39.9987 36.938 40 35.8333V27.5C40 26.837 39.7366 26.2011 39.2678 25.7322C38.7989 25.2634 38.163 25 37.5 25ZM30 21.6667C30.8841 21.6667 31.7319 22.0179 32.357 22.643C32.9821 23.2681 33.3333 24.1159 33.3333 25H26.6667C26.6667 24.1159 27.0179 23.2681 27.643 22.643C28.2681 22.0179 29.1159 21.6667 30 21.6667ZM38.3333 35.8333C38.3333 36.4964 38.0699 37.1323 37.6011 37.6011C37.1323 38.0699 36.4964 38.3333 35.8333 38.3333H24.1667C23.5036 38.3333 22.8677 38.0699 22.3989 37.6011C21.9301 37.1323 21.6667 36.4964 21.6667 35.8333V27.5C21.6667 27.279 21.7545 27.067 21.9107 26.9107C22.067 26.7545 22.279 26.6667 22.5 26.6667H25V28.3333C25 28.5543 25.0878 28.7663 25.2441 28.9226C25.4004 29.0789 25.6123 29.1667 25.8333 29.1667C26.0543 29.1667 26.2663 29.0789 26.4226 28.9226C26.5789 28.7663 26.6667 28.5543 26.6667 28.3333V26.6667H33.3333V28.3333C33.3333 28.5543 33.4211 28.7663 33.5774 28.9226C33.7337 29.0789 33.9457 29.1667 34.1667 29.1667C34.3877 29.1667 34.5996 29.0789 34.7559 28.9226C34.9122 28.7663 35 28.5543 35 28.3333V26.6667H37.5C37.721 26.6667 37.933 26.7545 38.0893 26.9107C38.2455 27.067 38.3333 27.279 38.3333 27.5V35.8333Z" fill="#131418"/>
<circle cx="55" cy="10" r="10" fill="#FE5127"/>
<path d="M54.984 9.624C54.2907 9.624 53.7573 9.74667 53.384 9.992C53.32 10.44 53.288 10.9147 53.288 11.416C53.288 12.5253 53.448 13.3413 53.768 13.864C54.0987 14.3867 54.5147 14.648 55.016 14.648C55.4747 14.648 55.8427 14.392 56.12 13.88C56.408 13.3573 56.552 12.6853 56.552 11.864C56.552 11.5013 56.5093 11.1653 56.424 10.856C56.3493 10.536 56.184 10.2533 55.928 10.008C55.6827 9.752 55.368 9.624 54.984 9.624ZM53.464 9.464C53.9013 9.208 54.3973 9.08 54.952 9.08C56.104 9.08 56.8987 9.33067 57.336 9.832C57.7733 10.3333 57.992 11.0533 57.992 11.992C57.992 12.9733 57.7307 13.7467 57.208 14.312C56.6853 14.8773 55.9547 15.16 55.016 15.16C54.0027 15.16 53.2187 14.8133 52.664 14.12C52.12 13.4267 51.848 12.5253 51.848 11.416C51.848 10.52 52.0027 9.688 52.312 8.92C52.6213 8.14133 53.0107 7.512 53.48 7.032C53.96 6.54133 54.4507 6.152 54.952 5.864C55.4533 5.576 55.9227 5.40533 56.36 5.352L56.552 5.64C55.7627 5.84267 55.1013 6.26933 54.568 6.92C54.0347 7.57067 53.6667 8.41867 53.464 9.464Z" fill="white"/>
</svg>
