<svg width="34" height="34" viewBox="0 0 34 34" fill="none" xmlns="http://www.w3.org/2000/svg">
<rect x="0.5" y="0.5" width="33" height="33" rx="16.5" stroke="#FBFCFC"/>
<path d="M21.2764 10.3934C21.2764 10.2903 21.2354 10.1914 21.1625 10.1185C21.0896 10.0456 20.9907 10.0046 20.8876 10.0046H18.9438C17.965 9.95584 17.0067 10.2965 16.2782 10.9521C15.5498 11.6077 15.1105 12.5249 15.0562 13.5034V15.6028H13.1124C13.0093 15.6028 12.9104 15.6437 12.8375 15.7166C12.7646 15.7895 12.7236 15.8884 12.7236 15.9915V18.0131C12.7236 18.1162 12.7646 18.2151 12.8375 18.288C12.9104 18.3609 13.0093 18.4018 13.1124 18.4018H15.0562V23.6112C15.0562 23.7143 15.0972 23.8132 15.1701 23.8861C15.243 23.959 15.3419 24 15.445 24H17.7775C17.8806 24 17.9795 23.959 18.0524 23.8861C18.1253 23.8132 18.1663 23.7143 18.1663 23.6112V18.4018H20.2034C20.2899 18.4031 20.3742 18.3755 20.4433 18.3234C20.5122 18.2713 20.5619 18.1976 20.5844 18.1142L21.1442 16.0926C21.1597 16.0352 21.1617 15.9749 21.1503 15.9166C21.1388 15.8582 21.1141 15.8032 21.078 15.7559C21.042 15.7086 20.9956 15.6702 20.9423 15.6436C20.8891 15.6171 20.8305 15.6031 20.771 15.6028H18.1663V13.5034C18.1856 13.311 18.276 13.1327 18.4198 13.0033C18.5636 12.8739 18.7504 12.8027 18.9438 12.8037H20.8876C20.9907 12.8037 21.0896 12.7627 21.1625 12.6898C21.2354 12.6169 21.2764 12.518 21.2764 12.4149V10.3934Z" fill="#6D6C70" fill-opacity="0.3"/>
</svg>
