<svg width="111" height="60" viewBox="0 0 111 60" fill="none" xmlns="http://www.w3.org/2000/svg">
<circle cx="30" cy="30" r="30" fill="#EFEFEF"/>
<path d="M34.8327 28.75C35.1824 28.8542 35.5154 28.9955 35.8316 29.1741C36.1478 29.3527 36.4789 29.6243 36.8249 29.9888C37.1709 30.3534 37.4667 30.7831 37.7122 31.2779C37.9577 31.7727 38.1623 32.4126 38.326 33.1975C38.4897 33.9825 38.5716 34.8624 38.5716 35.8371C38.5716 36.9829 38.1995 37.9632 37.4555 38.7779C36.7114 39.5926 35.8149 40 34.7658 40H25.2345C24.1854 40 23.2888 39.5926 22.5448 38.7779C21.8007 37.9632 21.4287 36.9829 21.4287 35.8371C21.4287 34.8624 21.5106 33.9825 21.6742 33.1975C21.8379 32.4126 22.0426 31.7727 22.2881 31.2779C22.5336 30.7831 22.8294 30.3534 23.1754 29.9888C23.5213 29.6243 23.8524 29.3527 24.1687 29.1741C24.4849 28.9955 24.8178 28.8542 25.1676 28.75C24.5798 27.8199 24.2859 26.808 24.2859 25.7143C24.2859 24.9405 24.4365 24.202 24.7379 23.4989C25.0392 22.7958 25.4466 22.1875 25.96 21.6741C26.4734 21.1607 27.0816 20.7533 27.7847 20.452C28.4879 20.1507 29.2263 20 30.0001 20C30.7739 20 31.5124 20.1507 32.2155 20.452C32.9187 20.7533 33.5269 21.1607 34.0403 21.6741C34.5537 22.1875 34.9611 22.7958 35.2624 23.4989C35.5638 24.202 35.7144 24.9405 35.7144 25.7143C35.7144 26.808 35.4205 27.8199 34.8327 28.75ZM30.0001 21.4286C28.8171 21.4286 27.8071 21.8471 26.97 22.6842C26.133 23.5212 25.7144 24.5312 25.7144 25.7143C25.7144 26.8973 26.133 27.9074 26.97 28.7444C27.8071 29.5815 28.8171 30 30.0001 30C31.1832 30 32.1932 29.5815 33.0303 28.7444C33.8673 27.9074 34.2859 26.8973 34.2859 25.7143C34.2859 24.5312 33.8673 23.5212 33.0303 22.6842C32.1932 21.8471 31.1832 21.4286 30.0001 21.4286ZM34.7658 38.5714C35.4205 38.5714 35.9804 38.3054 36.4455 37.7734C36.9105 37.2414 37.143 36.596 37.143 35.8371C37.143 34.0588 36.851 32.6562 36.2669 31.6295C35.6828 30.6027 34.8439 30.0632 33.7501 30.0112C32.6713 30.9561 31.4213 31.4286 30.0001 31.4286C28.579 31.4286 27.329 30.9561 26.2501 30.0112C25.1564 30.0632 24.3175 30.6027 23.7334 31.6295C23.1493 32.6562 22.8573 34.0588 22.8573 35.8371C22.8573 36.596 23.0898 37.2414 23.5548 37.7734C24.0199 38.3054 24.5798 38.5714 25.2345 38.5714H34.7658Z" fill="#6D6C70"/>
<path d="M71.84 29.852C72.2453 30.076 72.528 30.2413 72.688 30.348C72.8587 30.444 73.1093 30.6147 73.44 30.86C73.7707 31.0947 74.0107 31.308 74.16 31.5C74.3093 31.6813 74.448 31.9213 74.576 32.22C74.7147 32.508 74.784 32.812 74.784 33.132C74.784 33.9213 74.4907 34.54 73.904 34.988C73.328 35.4253 72.64 35.6493 71.84 35.66V36.076H71.36V35.644C70.912 35.6013 70.4693 35.5107 70.032 35.372C69.6053 35.2227 69.2907 35.084 69.088 34.956L68.784 34.764V33.276H69.136C69.3387 34.396 70.08 35.004 71.36 35.1V31.404C70.944 31.1587 70.64 30.9773 70.448 30.86C70.2667 30.732 70.016 30.5347 69.696 30.268C69.376 30.0013 69.1467 29.724 69.008 29.436C68.8693 29.1373 68.8 28.812 68.8 28.46C68.8 27.8307 69.0507 27.2653 69.552 26.764C70.064 26.2627 70.6667 26.0013 71.36 25.98V25.58H71.84V25.996C72.2027 26.0387 72.56 26.1347 72.912 26.284C73.264 26.4227 73.5253 26.5507 73.696 26.668L73.936 26.86V28.172H73.584C73.52 27.7453 73.344 27.3827 73.056 27.084C72.768 26.7853 72.3627 26.604 71.84 26.54V29.852ZM71.36 29.564V26.524C70.912 26.5453 70.5707 26.7107 70.336 27.02C70.112 27.3187 70 27.628 70 27.948C70 28.2787 70.112 28.5667 70.336 28.812C70.5707 29.0467 70.912 29.2973 71.36 29.564ZM71.84 31.676V35.116C72.928 35.084 73.472 34.572 73.472 33.58C73.472 33.1747 73.3333 32.8333 73.056 32.556C72.7787 32.2787 72.3733 31.9853 71.84 31.676ZM77.8093 27.804C77.4466 28.6787 77.2653 29.6867 77.2653 30.828C77.2653 31.9693 77.4466 32.9773 77.8093 33.852C78.1826 34.7267 78.6466 35.164 79.2013 35.164C79.7559 35.164 80.2146 34.7267 80.5773 33.852C80.9506 32.9773 81.1373 31.9693 81.1373 30.828C81.1373 29.6867 80.9506 28.6787 80.5773 27.804C80.2146 26.9187 79.7559 26.476 79.2013 26.476C78.6466 26.476 78.1826 26.9187 77.8093 27.804ZM76.7213 34.268C76.1239 33.3293 75.8253 32.1827 75.8253 30.828C75.8253 29.4733 76.1239 28.3267 76.7213 27.388C77.3293 26.4493 78.1559 25.98 79.2013 25.98C80.2466 25.98 81.0679 26.4493 81.6653 27.388C82.2733 28.3267 82.5773 29.4733 82.5773 30.828C82.5773 32.1827 82.2733 33.3293 81.6653 34.268C81.0679 35.196 80.2466 35.66 79.2013 35.66C78.1559 35.66 77.3293 35.196 76.7213 34.268ZM85.653 27.804C85.2903 28.6787 85.109 29.6867 85.109 30.828C85.109 31.9693 85.2903 32.9773 85.653 33.852C86.0263 34.7267 86.4903 35.164 87.045 35.164C87.5997 35.164 88.0583 34.7267 88.421 33.852C88.7943 32.9773 88.981 31.9693 88.981 30.828C88.981 29.6867 88.7943 28.6787 88.421 27.804C88.0583 26.9187 87.5997 26.476 87.045 26.476C86.4903 26.476 86.0263 26.9187 85.653 27.804ZM84.565 34.268C83.9677 33.3293 83.669 32.1827 83.669 30.828C83.669 29.4733 83.9677 28.3267 84.565 27.388C85.173 26.4493 85.9997 25.98 87.045 25.98C88.0903 25.98 88.9117 26.4493 89.509 27.388C90.117 28.3267 90.421 29.4733 90.421 30.828C90.421 32.1827 90.117 33.3293 89.509 34.268C88.9117 35.196 88.0903 35.66 87.045 35.66C85.9997 35.66 85.173 35.196 84.565 34.268ZM92.0568 35.372C91.8648 35.1693 91.7688 34.94 91.7688 34.684C91.7688 34.428 91.8541 34.1987 92.0247 33.996C92.2061 33.7827 92.4354 33.676 92.7128 33.676C92.9581 33.676 93.1821 33.772 93.3848 33.964C93.5874 34.156 93.6888 34.38 93.6888 34.636C93.6888 34.892 93.5981 35.1267 93.4168 35.34C93.2354 35.5533 93.0061 35.66 92.7288 35.66C92.4834 35.66 92.2594 35.564 92.0568 35.372ZM97.0124 27.804C96.6497 28.6787 96.4684 29.6867 96.4684 30.828C96.4684 31.9693 96.6497 32.9773 97.0124 33.852C97.3857 34.7267 97.8497 35.164 98.4044 35.164C98.959 35.164 99.4177 34.7267 99.7804 33.852C100.154 32.9773 100.34 31.9693 100.34 30.828C100.34 29.6867 100.154 28.6787 99.7804 27.804C99.4177 26.9187 98.959 26.476 98.4044 26.476C97.8497 26.476 97.3857 26.9187 97.0124 27.804ZM95.9244 34.268C95.327 33.3293 95.0284 32.1827 95.0284 30.828C95.0284 29.4733 95.327 28.3267 95.9244 27.388C96.5324 26.4493 97.359 25.98 98.4044 25.98C99.4497 25.98 100.271 26.4493 100.868 27.388C101.476 28.3267 101.78 29.4733 101.78 30.828C101.78 32.1827 101.476 33.3293 100.868 34.268C100.271 35.196 99.4497 35.66 98.4044 35.66C97.359 35.66 96.5324 35.196 95.9244 34.268ZM104.856 27.804C104.493 28.6787 104.312 29.6867 104.312 30.828C104.312 31.9693 104.493 32.9773 104.856 33.852C105.229 34.7267 105.693 35.164 106.248 35.164C106.803 35.164 107.261 34.7267 107.624 33.852C107.997 32.9773 108.184 31.9693 108.184 30.828C108.184 29.6867 107.997 28.6787 107.624 27.804C107.261 26.9187 106.803 26.476 106.248 26.476C105.693 26.476 105.229 26.9187 104.856 27.804ZM103.768 34.268C103.171 33.3293 102.872 32.1827 102.872 30.828C102.872 29.4733 103.171 28.3267 103.768 27.388C104.376 26.4493 105.203 25.98 106.248 25.98C107.293 25.98 108.115 26.4493 108.712 27.388C109.32 28.3267 109.624 29.4733 109.624 30.828C109.624 32.1827 109.32 33.3293 108.712 34.268C108.115 35.196 107.293 35.66 106.248 35.66C105.203 35.66 104.376 35.196 103.768 34.268Z" fill="#6D6C70"/>
</svg>
