<svg width="47" height="24" viewBox="0 0 47 24" fill="none" xmlns="http://www.w3.org/2000/svg">
<path d="M15.2748 5.61712C13.115 5.61712 12.2022 6.64777 10.698 6.64777C9.15576 6.64777 7.97941 5.62462 6.10775 5.62462C4.27573 5.62462 2.32211 6.74312 1.08148 8.64853C-0.66055 11.3355 -0.364856 16.396 2.45656 20.7072C3.46578 22.2505 4.81355 23.9813 6.58129 24H6.61343C8.14975 24 8.60615 22.994 10.7205 22.9822H10.7526C12.8353 22.9822 13.2532 23.9941 14.7831 23.9941H14.8152C16.5829 23.9754 18.003 22.0576 19.0122 20.5202C19.7386 19.4146 20.0086 18.8596 20.5657 17.6088C16.4844 16.0596 15.8287 10.2738 19.865 8.05553C18.633 6.51278 16.9017 5.61927 15.2695 5.61927L15.2748 5.61712Z" fill="#202F2E"/>
<path d="M14.7991 0C13.5135 0.0873156 12.0136 0.905832 11.1351 1.97451C10.338 2.94302 9.68233 4.37971 9.93945 5.77301H10.0423C11.4115 5.77301 12.8128 4.9486 13.6314 3.89224C14.4199 2.88677 15.0177 1.46187 14.7991 0Z" fill="#202F2E"/>
<path d="M26.9858 12.6592C27.4325 12.7412 27.8403 12.7503 28.2095 12.6865C28.5832 12.6182 28.9022 12.4769 29.1665 12.2627C29.4354 12.0439 29.6427 11.75 29.7886 11.3809C29.939 11.0117 30.0142 10.5605 30.0142 10.0273C30.0142 9.6582 29.9754 9.32324 29.8979 9.02246C29.8205 8.71712 29.7043 8.45964 29.5493 8.25C29.3989 8.03581 29.2075 7.87174 28.9751 7.75781C28.7427 7.63932 28.4715 7.58008 28.1616 7.58008C27.9657 7.58008 27.7948 7.58919 27.6489 7.60742C27.5031 7.62109 27.38 7.63704 27.2798 7.65527C27.1613 7.67806 27.0633 7.70312 26.9858 7.73047V12.6592ZM25.5435 7.19727C25.6346 7.20638 25.7303 7.21549 25.8306 7.22461C25.9172 7.23372 26.0129 7.24056 26.1177 7.24512C26.2271 7.24512 26.3387 7.24512 26.4526 7.24512C26.6304 7.24512 26.8696 7.22461 27.1704 7.18359C27.4757 7.13802 27.8631 7.11523 28.3325 7.11523C28.77 7.11523 29.1733 7.17904 29.5425 7.30664C29.9162 7.43424 30.2397 7.62109 30.5132 7.86719C30.7866 8.11328 30.9985 8.41406 31.1489 8.76953C31.3039 9.12044 31.3813 9.52148 31.3813 9.97266C31.3813 10.5788 31.2606 11.1029 31.019 11.5449C30.7775 11.987 30.4539 12.3447 30.0483 12.6182C29.6427 12.8916 29.1756 13.0785 28.647 13.1787C28.1183 13.2744 27.5646 13.279 26.9858 13.1924V14.3271C26.9858 14.7145 26.9904 15.054 26.9995 15.3457C27.0132 15.6328 27.0269 15.8812 27.0405 16.0908C27.0588 16.3005 27.0793 16.4759 27.1021 16.6172C27.1294 16.7585 27.1567 16.877 27.1841 16.9727V17H25.5435V16.9727C25.5708 16.877 25.5959 16.7585 25.6187 16.6172C25.646 16.4759 25.6688 16.3005 25.687 16.0908C25.7052 15.8812 25.7189 15.6328 25.728 15.3457C25.7371 15.054 25.7417 14.7145 25.7417 14.3271V9.87695C25.7417 9.48958 25.7371 9.15234 25.728 8.86523C25.7189 8.57357 25.7052 8.32292 25.687 8.11328C25.6688 7.89909 25.646 7.72135 25.6187 7.58008C25.5959 7.4388 25.5708 7.32031 25.5435 7.22461V7.19727ZM31.8257 14.9834C31.8257 14.6234 31.8986 14.3112 32.0444 14.0469C32.1948 13.7826 32.3931 13.557 32.6392 13.3701C32.8853 13.1833 33.1655 13.0329 33.48 12.9189C33.7944 12.8005 34.1203 12.7093 34.4575 12.6455C34.7948 12.5771 35.1274 12.5316 35.4556 12.5088C35.7837 12.4814 36.0845 12.4655 36.3579 12.4609V12.1123C36.3579 11.8115 36.3192 11.5518 36.2417 11.333C36.1642 11.1143 36.0549 10.9342 35.9136 10.793C35.7723 10.6471 35.6014 10.54 35.4009 10.4717C35.2049 10.3988 34.9884 10.3623 34.7515 10.3623C34.5874 10.3623 34.4256 10.376 34.2661 10.4033C34.1066 10.4307 33.9403 10.4762 33.7671 10.54C33.5985 10.6038 33.4185 10.6904 33.2271 10.7998C33.0402 10.9092 32.8374 11.0482 32.6187 11.2168L32.5503 11.1758L33.0151 10.2119C33.1655 10.1436 33.3136 10.0889 33.4595 10.0479C33.6053 10.0023 33.7534 9.96582 33.9038 9.93848C34.0542 9.91113 34.2069 9.8929 34.3618 9.88379C34.5213 9.87012 34.6877 9.86328 34.8608 9.86328C35.3394 9.86328 35.7472 9.92253 36.0845 10.041C36.4263 10.1549 36.7043 10.3145 36.9185 10.5195C37.1372 10.7201 37.2967 10.957 37.397 11.2305C37.4972 11.4993 37.5474 11.7887 37.5474 12.0986V14.3271C37.5474 14.7145 37.5519 15.054 37.561 15.3457C37.5747 15.6328 37.5884 15.8812 37.6021 16.0908C37.6203 16.3005 37.6408 16.4759 37.6636 16.6172C37.6909 16.7585 37.7183 16.877 37.7456 16.9727V17H36.2349V16.9727C36.2576 16.8997 36.2736 16.8177 36.2827 16.7266C36.2964 16.6354 36.3078 16.526 36.3169 16.3984C36.2212 16.4805 36.1073 16.5648 35.9751 16.6514C35.8475 16.738 35.6994 16.8177 35.5308 16.8906C35.3667 16.959 35.1821 17.0137 34.9771 17.0547C34.7765 17.1003 34.5555 17.123 34.314 17.123C33.521 17.123 32.908 16.9385 32.4751 16.5693C32.0422 16.1956 31.8257 15.667 31.8257 14.9834ZM36.3579 12.9941C35.9432 12.9987 35.5444 13.0238 35.1616 13.0693C34.7788 13.1104 34.4393 13.1992 34.1431 13.3359C33.8514 13.4727 33.6167 13.6686 33.439 13.9238C33.2658 14.1745 33.1792 14.5094 33.1792 14.9287C33.1792 15.4665 33.3136 15.8766 33.5825 16.1592C33.8514 16.4417 34.2228 16.583 34.6968 16.583C34.9155 16.583 35.1138 16.5534 35.2915 16.4941C35.4738 16.4303 35.6333 16.3529 35.77 16.2617C35.9113 16.166 36.0298 16.0635 36.1255 15.9541C36.2212 15.8402 36.2941 15.7308 36.3442 15.626C36.3534 15.4528 36.3579 15.2614 36.3579 15.0518C36.3579 14.8376 36.3579 14.596 36.3579 14.3271V12.9941ZM41.813 16.918L39.4067 11.6543C39.3201 11.4538 39.2267 11.2624 39.1265 11.0801C39.0262 10.8932 38.9305 10.7269 38.8394 10.5811C38.7528 10.4352 38.6753 10.3145 38.6069 10.2188C38.5386 10.1185 38.493 10.0547 38.4702 10.0273V10H40.2612V10.0273C40.2521 10.0501 40.2453 10.0843 40.2407 10.1299C40.2362 10.1755 40.2339 10.2165 40.2339 10.2529C40.2339 10.3942 40.2544 10.5514 40.2954 10.7246C40.341 10.8932 40.423 11.1051 40.5415 11.3604L42.4282 15.4619L44.1509 11.415C44.2238 11.2464 44.2967 11.0618 44.3696 10.8613C44.4471 10.6608 44.4858 10.458 44.4858 10.2529C44.4858 10.1937 44.4813 10.1458 44.4722 10.1094C44.4631 10.0684 44.4539 10.041 44.4448 10.0273V10H45.6753V10.0273C45.5933 10.1139 45.4884 10.2689 45.3608 10.4922C45.2378 10.7109 45.1056 10.9867 44.9644 11.3193L41.7036 19.085C41.6307 19.2536 41.5555 19.4382 41.478 19.6387C41.4051 19.8392 41.3687 20.042 41.3687 20.2471C41.3687 20.3063 41.3732 20.3542 41.3823 20.3906C41.3914 20.4316 41.4006 20.459 41.4097 20.4727V20.5H40.1313V20.4727C40.2179 20.3861 40.3228 20.2334 40.4458 20.0146C40.5734 19.8005 40.7078 19.5293 40.8491 19.2012L41.813 16.918Z" fill="#202F2E"/>
</svg>
