<svg width="69" height="24" viewBox="0 0 69 24" fill="none" xmlns="http://www.w3.org/2000/svg">
<path d="M25.6054 4.64411C22.8247 3.03887 19.2689 3.9927 17.6619 6.77356L13.6111 13.7906C12.439 15.817 13.948 16.525 15.6305 17.5339L19.5283 19.7835C20.8483 20.5449 22.5343 20.093 23.2956 18.7747L27.4599 11.5633C28.8588 9.14 28.0287 6.04307 25.6054 4.64411Z" fill="#EA4335"/>
<path d="M21.0219 7.54853L17.1241 5.29882C14.9724 4.10437 13.7538 4.0253 12.8705 5.42944L7.12167 15.3855C5.51644 18.1645 6.47192 21.7187 9.25101 23.3204C11.6743 24.7194 14.7713 23.8893 16.1703 21.466L22.0291 11.3175C22.7939 9.99757 22.3419 8.30985 21.0219 7.54853Z" fill="#FBBC04"/>
<path d="M19.0344 0.849186C16.0062 -0.898556 12.1341 0.137755 10.3862 3.16596L5.17361 12.1939C4.4037 13.5259 4.86084 15.2308 6.19285 15.9989L9.25883 17.7691C10.7729 18.644 12.7081 18.1248 13.5829 16.6108L19.5379 6.29725C20.7719 4.16109 23.5029 3.42895 25.639 4.66294L19.0344 0.849186Z" fill="#34A853"/>
<path d="M11.1267 5.74914L8.16724 4.04424C6.84734 3.28457 5.16138 3.73478 4.40006 5.05137L0.849186 11.1869C-0.898556 14.2065 0.137755 18.0699 3.16596 19.8127L9.33768 23.3666C7.23235 21.9574 6.56376 19.1337 7.85095 16.9098L12.1373 9.5042C12.8969 8.19113 12.445 6.50881 11.1267 5.74914Z" fill="#4285F4"/>
<path d="M41.7441 15.8516C41.7441 15.9017 41.7373 15.9541 41.7236 16.0088C41.7145 16.0635 41.6895 16.109 41.6484 16.1455C41.4434 16.3005 41.2201 16.444 40.9785 16.5762C40.7415 16.7038 40.484 16.8154 40.2061 16.9111C39.9281 17.0068 39.6273 17.0798 39.3037 17.1299C38.9847 17.1846 38.6406 17.2119 38.2715 17.2119C37.4421 17.2119 36.6855 17.0911 36.002 16.8496C35.3184 16.6035 34.7305 16.2572 34.2383 15.8105C33.7507 15.3639 33.3724 14.8285 33.1035 14.2041C32.8346 13.5752 32.7002 12.8779 32.7002 12.1123C32.7002 11.6794 32.7549 11.2533 32.8643 10.834C32.9782 10.4147 33.1423 10.016 33.3564 9.6377C33.5706 9.25944 33.835 8.91309 34.1494 8.59863C34.4639 8.27962 34.8216 8.00391 35.2227 7.77148C35.6283 7.53906 36.0726 7.35905 36.5557 7.23145C37.0433 7.09928 37.5697 7.0332 38.1348 7.0332C38.3535 7.0332 38.5768 7.0446 38.8047 7.06738C39.0326 7.08561 39.2581 7.11523 39.4814 7.15625C39.7048 7.19271 39.9189 7.23828 40.124 7.29297C40.3337 7.34766 40.5319 7.40918 40.7188 7.47754L41.1836 8.74219L41.1289 8.76953C40.9512 8.61003 40.7461 8.46191 40.5137 8.3252C40.2812 8.18848 40.0329 8.06999 39.7686 7.96973C39.5042 7.86947 39.2262 7.79199 38.9346 7.7373C38.6475 7.67806 38.3558 7.64844 38.0596 7.64844C37.4854 7.64844 36.959 7.73958 36.4805 7.92188C36.002 8.09961 35.5895 8.35938 35.2432 8.70117C34.9014 9.04297 34.6348 9.46224 34.4434 9.95898C34.252 10.4557 34.1562 11.0208 34.1562 11.6543C34.1562 12.3516 34.2474 12.9987 34.4297 13.5957C34.612 14.1927 34.8831 14.71 35.2432 15.1475C35.6032 15.585 36.0521 15.929 36.5898 16.1797C37.1322 16.4258 37.7633 16.5488 38.4834 16.5488C38.8024 16.5488 39.0872 16.5238 39.3379 16.4736C39.5885 16.4235 39.8005 16.362 39.9736 16.2891C40.1468 16.2116 40.2767 16.1296 40.3633 16.043C40.4544 15.9518 40.5 15.8698 40.5 15.7969V15.5303C40.5 15.2113 40.4954 14.9355 40.4863 14.7031C40.4772 14.4707 40.4635 14.2702 40.4453 14.1016C40.4271 13.9284 40.4066 13.7803 40.3838 13.6572C40.361 13.5342 40.3337 13.4202 40.3018 13.3154V13.2881H41.9424V13.3154C41.915 13.4111 41.8877 13.5251 41.8604 13.6572C41.8376 13.7848 41.8171 13.9375 41.7988 14.1152C41.7806 14.293 41.7669 14.5026 41.7578 14.7441C41.7487 14.9811 41.7441 15.2568 41.7441 15.5713V15.8516ZM49.1475 12.6592C49.5941 12.7412 50.002 12.7503 50.3711 12.6865C50.7448 12.6182 51.0638 12.4769 51.3281 12.2627C51.597 12.0439 51.8044 11.75 51.9502 11.3809C52.1006 11.0117 52.1758 10.5605 52.1758 10.0273C52.1758 9.6582 52.137 9.32324 52.0596 9.02246C51.9821 8.71712 51.8659 8.45964 51.7109 8.25C51.5605 8.03581 51.3691 7.87174 51.1367 7.75781C50.9043 7.63932 50.6331 7.58008 50.3232 7.58008C50.1273 7.58008 49.9564 7.58919 49.8105 7.60742C49.6647 7.62109 49.5417 7.63704 49.4414 7.65527C49.3229 7.67806 49.2249 7.70312 49.1475 7.73047V12.6592ZM47.7051 7.19727C47.7962 7.20638 47.8919 7.21549 47.9922 7.22461C48.0788 7.23372 48.1745 7.24056 48.2793 7.24512C48.3887 7.24512 48.5003 7.24512 48.6143 7.24512C48.792 7.24512 49.0312 7.22461 49.332 7.18359C49.6374 7.13802 50.0247 7.11523 50.4941 7.11523C50.9316 7.11523 51.335 7.17904 51.7041 7.30664C52.0778 7.43424 52.4014 7.62109 52.6748 7.86719C52.9482 8.11328 53.1602 8.41406 53.3105 8.76953C53.4655 9.12044 53.543 9.52148 53.543 9.97266C53.543 10.5788 53.4222 11.1029 53.1807 11.5449C52.9391 11.987 52.6156 12.3447 52.21 12.6182C51.8044 12.8916 51.3372 13.0785 50.8086 13.1787C50.2799 13.2744 49.7262 13.279 49.1475 13.1924V14.3271C49.1475 14.7145 49.152 15.054 49.1611 15.3457C49.1748 15.6328 49.1885 15.8812 49.2021 16.0908C49.2204 16.3005 49.2409 16.4759 49.2637 16.6172C49.291 16.7585 49.3184 16.877 49.3457 16.9727V17H47.7051V16.9727C47.7324 16.877 47.7575 16.7585 47.7803 16.6172C47.8076 16.4759 47.8304 16.3005 47.8486 16.0908C47.8669 15.8812 47.8805 15.6328 47.8896 15.3457C47.8988 15.054 47.9033 14.7145 47.9033 14.3271V9.87695C47.9033 9.48958 47.8988 9.15234 47.8896 8.86523C47.8805 8.57357 47.8669 8.32292 47.8486 8.11328C47.8304 7.89909 47.8076 7.72135 47.7803 7.58008C47.7575 7.4388 47.7324 7.32031 47.7051 7.22461V7.19727ZM53.9873 14.9834C53.9873 14.6234 54.0602 14.3112 54.2061 14.0469C54.3564 13.7826 54.5547 13.557 54.8008 13.3701C55.0469 13.1833 55.3271 13.0329 55.6416 12.9189C55.9561 12.8005 56.2819 12.7093 56.6191 12.6455C56.9564 12.5771 57.2891 12.5316 57.6172 12.5088C57.9453 12.4814 58.2461 12.4655 58.5195 12.4609V12.1123C58.5195 11.8115 58.4808 11.5518 58.4033 11.333C58.3258 11.1143 58.2165 10.9342 58.0752 10.793C57.9339 10.6471 57.763 10.54 57.5625 10.4717C57.3665 10.3988 57.1501 10.3623 56.9131 10.3623C56.749 10.3623 56.5872 10.376 56.4277 10.4033C56.2682 10.4307 56.1019 10.4762 55.9287 10.54C55.7601 10.6038 55.5801 10.6904 55.3887 10.7998C55.2018 10.9092 54.999 11.0482 54.7803 11.2168L54.7119 11.1758L55.1768 10.2119C55.3271 10.1436 55.4753 10.0889 55.6211 10.0479C55.7669 10.0023 55.915 9.96582 56.0654 9.93848C56.2158 9.91113 56.3685 9.8929 56.5234 9.88379C56.6829 9.87012 56.8493 9.86328 57.0225 9.86328C57.501 9.86328 57.9089 9.92253 58.2461 10.041C58.5879 10.1549 58.8659 10.3145 59.0801 10.5195C59.2988 10.7201 59.4583 10.957 59.5586 11.2305C59.6589 11.4993 59.709 11.7887 59.709 12.0986V14.3271C59.709 14.7145 59.7135 15.054 59.7227 15.3457C59.7363 15.6328 59.75 15.8812 59.7637 16.0908C59.7819 16.3005 59.8024 16.4759 59.8252 16.6172C59.8525 16.7585 59.8799 16.877 59.9072 16.9727V17H58.3965V16.9727C58.4193 16.8997 58.4352 16.8177 58.4443 16.7266C58.458 16.6354 58.4694 16.526 58.4785 16.3984C58.3828 16.4805 58.2689 16.5648 58.1367 16.6514C58.0091 16.738 57.861 16.8177 57.6924 16.8906C57.5283 16.959 57.3438 17.0137 57.1387 17.0547C56.9382 17.1003 56.7171 17.123 56.4756 17.123C55.6826 17.123 55.0697 16.9385 54.6367 16.5693C54.2038 16.1956 53.9873 15.667 53.9873 14.9834ZM58.5195 12.9941C58.1048 12.9987 57.7061 13.0238 57.3232 13.0693C56.9404 13.1104 56.6009 13.1992 56.3047 13.3359C56.013 13.4727 55.7783 13.6686 55.6006 13.9238C55.4274 14.1745 55.3408 14.5094 55.3408 14.9287C55.3408 15.4665 55.4753 15.8766 55.7441 16.1592C56.013 16.4417 56.3844 16.583 56.8584 16.583C57.0771 16.583 57.2754 16.5534 57.4531 16.4941C57.6354 16.4303 57.7949 16.3529 57.9316 16.2617C58.0729 16.166 58.1914 16.0635 58.2871 15.9541C58.3828 15.8402 58.4557 15.7308 58.5059 15.626C58.515 15.4528 58.5195 15.2614 58.5195 15.0518C58.5195 14.8376 58.5195 14.596 58.5195 14.3271V12.9941ZM63.9746 16.918L61.5684 11.6543C61.4818 11.4538 61.3883 11.2624 61.2881 11.0801C61.1878 10.8932 61.0921 10.7269 61.001 10.5811C60.9144 10.4352 60.8369 10.3145 60.7686 10.2188C60.7002 10.1185 60.6546 10.0547 60.6318 10.0273V10H62.4229V10.0273C62.4137 10.0501 62.4069 10.0843 62.4023 10.1299C62.3978 10.1755 62.3955 10.2165 62.3955 10.2529C62.3955 10.3942 62.416 10.5514 62.457 10.7246C62.5026 10.8932 62.5846 11.1051 62.7031 11.3604L64.5898 15.4619L66.3125 11.415C66.3854 11.2464 66.4583 11.0618 66.5312 10.8613C66.6087 10.6608 66.6475 10.458 66.6475 10.2529C66.6475 10.1937 66.6429 10.1458 66.6338 10.1094C66.6247 10.0684 66.6156 10.041 66.6064 10.0273V10H67.8369V10.0273C67.7549 10.1139 67.6501 10.2689 67.5225 10.4922C67.3994 10.7109 67.2673 10.9867 67.126 11.3193L63.8652 19.085C63.7923 19.2536 63.7171 19.4382 63.6396 19.6387C63.5667 19.8392 63.5303 20.042 63.5303 20.2471C63.5303 20.3063 63.5348 20.3542 63.5439 20.3906C63.5531 20.4316 63.5622 20.459 63.5713 20.4727V20.5H62.293V20.4727C62.3796 20.3861 62.4844 20.2334 62.6074 20.0146C62.735 19.8005 62.8695 19.5293 63.0107 19.2012L63.9746 16.918Z" fill="#202F2E"/>
</svg>
