<svg width="36" height="24" viewBox="0 0 36 24" fill="none" xmlns="http://www.w3.org/2000/svg">
<path d="M12 24C9.62663 24 7.30655 23.2962 5.33316 21.9776C3.35977 20.6591 1.8217 18.7849 0.913451 16.5922C0.00519942 14.3995 -0.232441 11.9867 0.230582 9.65892C0.693605 7.33115 1.83649 5.19295 3.51472 3.51472C5.19295 1.83649 7.33115 0.693604 9.65892 0.230582C11.9867 -0.232441 14.3995 0.00519974 16.5922 0.913451C18.7849 1.8217 20.6591 3.35977 21.9776 5.33316C23.2962 7.30655 24 9.62663 24 12C23.9967 15.1816 22.7314 18.2319 20.4816 20.4816C18.2319 22.7313 15.1816 23.9967 12 24Z" fill="#EB001B"/>
<path opacity="0.5" d="M23.6756 24C21.3022 24.0004 18.9821 23.2969 17.0085 21.9786C15.0349 20.6603 13.4965 18.7864 12.588 16.5938C11.6794 14.4013 11.4414 11.9885 11.9041 9.66067C12.3667 7.33283 13.5093 5.19446 15.1873 3.51598C16.8653 1.83751 19.0033 0.694299 21.331 0.23093C23.6587 -0.232438 26.0715 0.00484243 28.2644 0.912768C30.4572 1.82069 32.3316 3.35849 33.6505 5.33168C34.9693 7.30487 35.6735 9.62484 35.6738 11.9982V12C35.6705 15.1813 34.4054 18.2313 32.1561 20.481C29.9068 22.7307 26.8569 23.9962 23.6756 24Z" fill="#F79E1B"/>
</svg>
