<svg width="21" height="24" viewBox="0 0 21 24" fill="none" xmlns="http://www.w3.org/2000/svg">
<path d="M17.317 1.80968C16.2057 0.543038 14.1969 0 11.627 0H4.16853C3.91427 9.4148e-06 3.66835 0.0907222 3.47498 0.255829C3.28162 0.420937 3.15349 0.649608 3.11364 0.900731L0.00805904 20.5971C-0.0536698 20.9855 0.247079 21.3372 0.64074 21.3372H5.24536L6.40178 14.0022L6.36589 14.2319C6.44828 13.7135 6.8917 13.331 7.4168 13.331H9.6049C13.9034 13.331 17.2692 11.5851 18.2524 6.5344C18.2816 6.38503 18.3069 6.23964 18.3288 6.0976C18.2047 6.03188 18.2047 6.03188 18.3288 6.0976C18.6215 4.23082 18.3268 2.96011 17.317 1.80968Z" fill="#27346A"/>
<path d="M8.16368 5.42512C8.28957 5.36518 8.42725 5.33412 8.56667 5.3342H14.414C15.1064 5.3342 15.7523 5.37926 16.3424 5.47425C16.5076 5.50058 16.6719 5.53202 16.8351 5.56852C17.0664 5.61956 17.295 5.68203 17.5201 5.7557C17.8103 5.8526 18.0805 5.96545 18.3288 6.0976C18.6215 4.2301 18.3268 2.96011 17.317 1.80968C16.2051 0.543038 14.1969 0 11.627 0H4.1679C3.64272 0 3.19595 0.382336 3.11364 0.900731L0.00805947 20.5964C-0.0536694 20.9854 0.247079 21.3366 0.640102 21.3366H5.24536L7.64457 6.12216C7.66816 5.97261 7.72773 5.83104 7.81816 5.70962C7.90859 5.5882 8.02716 5.49056 8.16368 5.42512Z" fill="#27346A"/>
<path d="M18.2521 6.53446C17.2689 11.5844 13.9031 13.3311 9.60451 13.3311H7.41577C6.89068 13.3311 6.44717 13.7135 6.36558 14.232L4.92692 23.3521C4.87316 23.692 5.13603 24.0001 5.47993 24.0001H9.3615C9.58385 24 9.79889 23.9206 9.96793 23.7762C10.137 23.6317 10.2489 23.4317 10.2837 23.2121L10.3215 23.0143L11.0531 18.3778L11.1002 18.1215C11.1349 17.9019 11.2469 17.7019 11.4159 17.5575C11.585 17.4131 11.8 17.3337 12.0223 17.3336H12.6032C16.3633 17.3336 19.3076 15.806 20.168 11.388C20.5271 9.54171 20.3413 8.00024 19.3912 6.91752C19.1031 6.58957 18.7452 6.31873 18.3284 6.09766C18.3058 6.24041 18.2813 6.38509 18.2521 6.53446Z" fill="#2790C3"/>
</svg>
