<svg width="34" height="34" viewBox="0 0 34 34" fill="none" xmlns="http://www.w3.org/2000/svg">
<rect x="0.5" y="0.5" width="33" height="33" rx="16.5" stroke="#FBFCFC"/>
<path d="M20.6269 14.2455C21.0908 14.2455 21.4669 13.8694 21.4669 13.4055C21.4669 12.9416 21.0908 12.5655 20.6269 12.5655C20.163 12.5655 19.7869 12.9416 19.7869 13.4055C19.7869 13.8694 20.163 14.2455 20.6269 14.2455Z" fill="#6D6C70" fill-opacity="0.3"/>
<path fill-rule="evenodd" clip-rule="evenodd" d="M13.5 17C13.5 18.9303 15.0698 20.5 17 20.5C18.9303 20.5 20.5 18.9303 20.5 17C20.5 15.0698 18.9303 13.5 17 13.5C15.0698 13.5 13.5 15.0698 13.5 17ZM15.25 17C15.25 16.0349 16.0349 15.25 17 15.25C17.9651 15.25 18.75 16.0349 18.75 17C18.75 17.9651 17.9651 18.75 17 18.75C16.0349 18.75 15.25 17.9651 15.25 17Z" fill="#6D6C70" fill-opacity="0.3"/>
<path fill-rule="evenodd" clip-rule="evenodd" d="M13.5 24H20.5C22.299 24 24 22.299 24 20.5V13.5C24 11.701 22.299 10 20.5 10L13.5 10C11.701 10 10 11.701 10 13.5L10 20.5C10 22.299 11.701 24 13.5 24ZM11.75 13.5C11.75 12.6819 12.6819 11.75 13.5 11.75L20.5 11.75C21.3181 11.75 22.25 12.6819 22.25 13.5V20.5C22.25 21.3181 21.3181 22.25 20.5 22.25H13.5C12.6661 22.25 11.75 21.3339 11.75 20.5L11.75 13.5Z" fill="#6D6C70" fill-opacity="0.3"/>
</svg>
