<svg width="34" height="34" viewBox="0 0 34 34" fill="none" xmlns="http://www.w3.org/2000/svg">
<rect width="34" height="34" rx="17" fill="#FBFCFC"/>
<path d="M11.75 13.5C12.7165 13.5 13.5 12.7165 13.5 11.75C13.5 10.7835 12.7165 10 11.75 10C10.7835 10 10 10.7835 10 11.75C10 12.7165 10.7835 13.5 11.75 13.5Z" fill="#131418"/>
<path d="M13.2083 14.6667H10.2917C10.1307 14.6667 10 14.7973 10 14.9583L10 23.7083C10 23.8693 10.1307 24 10.2917 24H13.2083C13.3693 24 13.5 23.8693 13.5 23.7083L13.5 14.9583C13.5 14.7973 13.3693 14.6667 13.2083 14.6667Z" fill="#131418"/>
<path d="M21.8982 14.2648C20.6517 13.8378 19.0924 14.2128 18.1573 14.8854C18.1252 14.76 18.0109 14.6667 17.875 14.6667H14.9583C14.7973 14.6667 14.6667 14.7973 14.6667 14.9583L14.6667 23.7083C14.6667 23.8693 14.7973 24 14.9583 24H17.875C18.036 24 18.1667 23.8693 18.1667 23.7083V17.42C18.638 17.014 19.2452 16.8845 19.7422 17.0957C20.2241 17.2992 20.5 17.7962 20.5 18.4583V23.7083C20.5 23.8693 20.6307 24 20.7917 24H23.7083C23.8693 24 24 23.8693 24 23.7083V17.8709C23.9668 15.474 22.8392 14.5868 21.8982 14.2648Z" fill="#131418"/>
</svg>
