<svg width="34" height="34" viewBox="0 0 34 34" fill="none" xmlns="http://www.w3.org/2000/svg">
<rect x="0.5" y="0.5" width="33" height="33" rx="16.5" stroke="#FBFCFC"/>
<path fill-rule="evenodd" clip-rule="evenodd" d="M15.2003 14.8783H17.8001V16.1733C18.1746 15.4285 19.135 14.7593 20.5777 14.7593C23.3434 14.7593 24 16.2419 24 18.9621V24H21.2V19.5816C21.2 18.0325 20.8255 17.1589 19.8721 17.1589C18.5498 17.1589 18.0003 18.1004 18.0003 19.5809V24H15.2003V14.8783ZM10.399 23.881H13.199V14.7593H10.399V23.881ZM13.6001 11.785C13.6002 12.0197 13.5537 12.2521 13.4632 12.4686C13.3727 12.6852 13.2401 12.8816 13.073 13.0464C12.7345 13.3828 12.2763 13.5712 11.799 13.57C11.3226 13.5697 10.8654 13.3818 10.5264 13.0471C10.3599 12.8817 10.2278 12.6851 10.1374 12.4685C10.0471 12.2519 10.0004 12.0197 10 11.785C10 11.3111 10.189 10.8575 10.5271 10.5229C10.8658 10.1877 11.3232 9.99979 11.7997 10C12.2771 10 12.7349 10.1883 13.073 10.5229C13.4104 10.8575 13.6001 11.3111 13.6001 11.785Z" fill="#6D6C70" fill-opacity="0.3"/>
</svg>
