<svg width="164" height="60" viewBox="0 0 164 60" fill="none" xmlns="http://www.w3.org/2000/svg">
<path d="M19.9664 1.27859C24.3985 -0.426195 29.3055 -0.426195 33.7376 1.27859L50.0137 7.53893C52.2386 8.39436 53.704 10.531 53.704 12.9093V13.4502C52.9957 12.9196 52.2172 12.4897 51.3909 12.1728L32.3605 4.85374C28.8148 3.48991 24.8892 3.48991 21.3435 4.85374L2.31311 12.1728C1.48676 12.4897 0.70832 12.9196 0 13.4502V12.9132C0.000153987 11.7499 0.352883 10.614 1.01167 9.65528C1.67046 8.69654 2.60437 7.95999 3.69023 7.54277L19.9664 1.27859ZM11.6614 23.489C11.7605 23.2572 11.9043 23.0471 12.0847 22.8709C12.265 22.6947 12.4783 22.5557 12.7124 22.462C12.9465 22.3683 13.1967 22.3217 13.4488 22.3248C13.701 22.3279 13.95 22.3807 14.1817 22.4801L26.852 27.9119L39.5223 22.4801C39.754 22.3809 40.003 22.3283 40.2551 22.3253C40.5071 22.3223 40.7573 22.3689 40.9914 22.4626C41.2254 22.5563 41.4387 22.6952 41.619 22.8713C41.7994 23.0474 41.9433 23.2573 42.0425 23.489C42.1418 23.7207 42.1944 23.9697 42.1974 24.2218C42.2004 24.4739 42.1538 24.7241 42.0601 24.9581C41.9664 25.1921 41.8275 25.4054 41.6514 25.5858C41.4753 25.7661 41.2654 25.91 41.0337 26.0093L28.77 31.2646V43.4247C28.77 43.9334 28.5679 44.4212 28.2082 44.7809C27.8485 45.1406 27.3607 45.3427 26.852 45.3427C26.3433 45.3427 25.8555 45.1406 25.4958 44.7809C25.1361 44.4212 24.934 43.9334 24.934 43.4247V31.2646L12.6703 26.0093C12.4384 25.9102 12.2284 25.7664 12.0522 25.586C11.8759 25.4057 11.737 25.1924 11.6433 24.9583C11.5496 24.7242 11.503 24.474 11.5061 24.2219C11.5092 23.9697 11.562 23.7207 11.6614 23.489ZM22.7206 8.43272C25.3799 7.40985 28.3241 7.40985 30.9834 8.43272L50.0137 15.7556C52.2386 16.6072 53.704 18.7439 53.704 21.126V46.5434C53.7038 47.7066 53.3511 48.8425 52.6923 49.8013C52.0335 50.76 51.0996 51.4965 50.0137 51.9138L30.9834 59.2328C28.3241 60.2557 25.3799 60.2557 22.7206 59.2328L3.69023 51.9138C2.60437 51.4965 1.67046 50.76 1.01167 49.8013C0.352883 48.8425 0.000153987 47.7066 0 46.5434V21.126C0.000153987 19.9628 0.352883 18.8269 1.01167 17.8681C1.67046 16.9094 2.60437 16.1729 3.69023 15.7556L22.7206 8.43272ZM29.6062 12.0155C27.8334 11.3336 25.8706 11.3336 24.0977 12.0155L5.06735 19.3346C4.70496 19.4736 4.39324 19.7192 4.17339 20.039C3.95353 20.3589 3.83589 20.7379 3.836 21.126V46.5434C3.83559 46.931 3.95267 47.3097 4.17181 47.6295C4.39094 47.9493 4.70184 48.1952 5.06352 48.3348L24.0977 55.6539C25.8706 56.3358 27.8334 56.3358 29.6062 55.6539L48.6405 48.3348C49.0021 48.1952 49.313 47.9493 49.5322 47.6295C49.7513 47.3097 49.8684 46.931 49.868 46.5434V21.126C49.8684 20.7384 49.7513 20.3597 49.5322 20.0399C49.313 19.7201 49.0021 19.4742 48.6405 19.3346L29.6062 12.0155Z" fill="#131418"/>
<path d="M62.1201 21.28H78.6641V24.384H77.9921C77.9921 23.36 77.6188 22.688 76.8721 22.368H72.4241V38.688C72.6161 39.1147 73.2881 39.328 74.4401 39.328V40H66.3441V39.328C67.4961 39.328 68.1681 39.1147 68.3601 38.688V22.368H63.9121C63.1654 22.688 62.7921 23.36 62.7921 24.384H62.1201V21.28ZM93.5114 38.08C94.6634 38.1653 95.3354 38.208 95.5274 38.208V38.944C95.122 38.944 94.1407 39.1787 92.5834 39.648C91.026 40.096 90.002 40.32 89.5114 40.32V39.392C88.4234 40.0107 87.3354 40.32 86.2474 40.32C82.13 40.32 80.0714 38.8053 80.0714 35.776V27.232C79.8794 26.8053 79.2074 26.592 78.0554 26.592V25.92H84.0714V36C84.0714 36.448 84.0714 36.8 84.0714 37.056C84.0927 37.2907 84.146 37.568 84.2314 37.888C84.3167 38.208 84.434 38.4533 84.5834 38.624C84.754 38.7947 84.9887 38.944 85.2874 39.072C85.6074 39.1787 85.9914 39.232 86.4394 39.232C87.4847 39.232 88.5087 38.944 89.5114 38.368V27.232C89.3194 26.8053 88.6474 26.592 87.4954 26.592V25.92H93.5114V38.08ZM96.7534 40V39.328C97.9054 39.328 98.5774 39.1147 98.7694 38.688V27.84C97.6174 27.7547 96.9454 27.712 96.7534 27.712V26.976C97.1587 26.976 98.14 26.752 99.6974 26.304C101.255 25.8347 102.279 25.6 102.769 25.6V26.944C103.879 26.048 104.935 25.6 105.937 25.6C108.583 25.6 109.905 26.24 109.905 27.52C109.905 28.032 109.745 28.4373 109.425 28.736C109.127 29.0347 108.753 29.184 108.305 29.184C107.815 29.184 107.441 29.056 107.185 28.8C106.929 28.544 106.769 28.256 106.705 27.936C106.641 27.616 106.513 27.328 106.321 27.072C106.151 26.816 105.895 26.688 105.553 26.688C104.743 26.688 103.815 27.136 102.769 28.032V38.688C102.961 39.1147 103.633 39.328 104.785 39.328V40H96.7534ZM110.691 40V39.328C111.843 39.328 112.515 39.1147 112.707 38.688V27.84C111.598 27.7547 110.926 27.712 110.691 27.712V26.976C111.096 26.976 112.078 26.752 113.635 26.304C115.192 25.8347 116.216 25.6 116.707 25.6V38.688C116.899 39.1147 117.571 39.328 118.723 39.328V40H110.691ZM114.627 23.552C114.115 23.552 113.592 23.3707 113.059 23.008C112.547 22.624 112.291 22.176 112.291 21.664C112.291 21.216 112.526 20.8 112.995 20.416C113.486 20.032 113.998 19.84 114.531 19.84C115.043 19.84 115.555 20.032 116.067 20.416C116.6 20.7787 116.867 21.2267 116.867 21.76C116.867 22.208 116.622 22.624 116.131 23.008C115.662 23.3707 115.16 23.552 114.627 23.552ZM123.333 28.288C123.824 28.288 124.069 28.7253 124.069 29.6C124.069 29.9627 123.888 30.24 123.525 30.432C123.162 30.624 122.778 30.72 122.373 30.72C121.946 30.72 121.562 30.5707 121.221 30.272C120.901 29.9733 120.741 29.5893 120.741 29.12C120.741 28.032 121.274 27.1787 122.341 26.56C123.429 25.92 124.837 25.6 126.565 25.6C128.592 25.6 130.17 26.112 131.301 27.136C132.432 28.1387 132.997 29.4187 132.997 30.976V37.312C132.997 37.9947 133.104 38.496 133.317 38.816C133.552 39.136 133.829 39.296 134.149 39.296C134.426 39.296 134.672 39.2213 134.885 39.072C135.12 38.9227 135.237 38.7413 135.237 38.528H135.813C135.813 39.68 134.64 40.256 132.293 40.256C131.205 40.256 130.362 39.872 129.765 39.104C128.485 39.9147 127.002 40.32 125.317 40.32C121.754 40.32 119.973 39.0187 119.973 36.416C119.973 35.8827 120.154 35.4027 120.517 34.976C120.901 34.5493 121.477 34.1867 122.245 33.888C123.013 33.5893 123.696 33.3547 124.293 33.184C124.912 33.0133 125.754 32.8213 126.821 32.608C127.888 32.3733 128.613 32.2027 128.997 32.096C128.997 30.0907 128.826 28.704 128.485 27.936C128.165 27.1467 127.418 26.752 126.245 26.752C125.541 26.752 124.901 26.9013 124.325 27.2C123.77 27.4773 123.44 27.84 123.333 28.288ZM129.317 38.336C129.104 37.76 128.997 37.12 128.997 36.416V32.8C127.184 33.3547 125.989 33.8133 125.413 34.176C124.517 34.7733 124.069 35.5413 124.069 36.48C124.069 37.4613 124.272 38.1653 124.677 38.592C125.104 39.0187 125.584 39.232 126.117 39.232C127.056 39.232 128.122 38.9333 129.317 38.336ZM136.035 40V39.328C137.187 39.328 137.859 39.1147 138.051 38.688V27.84C136.899 27.7547 136.227 27.712 136.035 27.712V26.976C136.44 26.976 137.421 26.752 138.979 26.304C140.536 25.8347 141.56 25.6 142.051 25.6V26.72C142.925 25.9733 144.024 25.6 145.347 25.6C148.184 25.6 150.051 26.1973 150.947 27.392C151.907 26.1973 153.219 25.6 154.883 25.6C156.931 25.6 158.477 26.144 159.523 27.232C160.589 28.32 161.123 30.208 161.123 32.896V38.688C161.315 39.1147 161.987 39.328 163.139 39.328V40H155.107V39.328C156.259 39.328 156.931 39.1147 157.123 38.688V32.48C157.123 30.496 156.941 29.0347 156.579 28.096C156.237 27.1573 155.608 26.688 154.691 26.688C153.539 26.688 152.451 27.2213 151.427 28.288C151.533 28.5867 151.587 28.992 151.587 29.504V38.688C151.779 39.1147 152.451 39.328 153.603 39.328V40H145.571V39.328C146.723 39.328 147.395 39.1147 147.587 38.688V31.36C147.587 29.6107 147.395 28.3947 147.011 27.712C146.627 27.0293 146.008 26.688 145.155 26.688C144.259 26.688 143.224 27.2 142.051 28.224V38.688C142.243 39.1147 142.915 39.328 144.067 39.328V40H136.035Z" fill="#131418"/>
</svg>
