<svg width="19" height="22" viewBox="0 0 19 22" fill="none" xmlns="http://www.w3.org/2000/svg">
<path d="M8.16368 5.42512C8.28957 5.36518 8.42725 5.33412 8.56667 5.3342H14.414C15.1064 5.3342 15.7523 5.37926 16.3424 5.47425C16.5076 5.50058 16.6719 5.53202 16.8351 5.56852C17.0664 5.61956 17.295 5.68203 17.5201 5.7557C17.8103 5.8526 18.0805 5.96545 18.3288 6.0976C18.6215 4.2301 18.3268 2.96011 17.317 1.80968C16.2051 0.543038 14.1969 0 11.627 0H4.1679C3.64272 0 3.19595 0.382336 3.11364 0.900731L0.00805947 20.5964C-0.0536694 20.9854 0.247079 21.3366 0.640102 21.3366H5.24536L7.64457 6.12216C7.66816 5.97261 7.72773 5.83104 7.81816 5.70962C7.90859 5.5882 8.02716 5.49056 8.16368 5.42512Z" fill="#27346A"/>
</svg>
