<svg width="34" height="34" viewBox="0 0 34 34" fill="none" xmlns="http://www.w3.org/2000/svg">
<rect x="0.5" y="0.5" width="33" height="33" rx="16.5" stroke="#FBFCFC"/>
<path fill-rule="evenodd" clip-rule="evenodd" d="M22.6961 12.3119C23.3189 12.4767 23.8095 12.9599 23.9766 13.5722C24.2869 14.6898 24.2724 17.02 24.2724 17.02C24.2724 17.02 24.2702 19.3373 23.9693 20.4542C23.8 21.0658 23.3073 21.5482 22.6852 21.7124C21.5471 22.005 16.9939 22 16.9939 22C16.9939 22 12.4531 21.995 11.3034 21.6881C10.6798 21.5233 10.1893 21.0401 10.0221 20.4285C9.72415 19.3223 9.72705 16.9929 9.72705 16.9929C9.72705 16.9929 9.72996 14.6749 10.0301 13.5572C10.1987 12.9456 10.7031 12.4518 11.3136 12.2883C12.4524 11.995 17.0048 12 17.0048 12C17.0048 12 21.558 12.005 22.6961 12.3119ZM15.5519 14.8582L15.5483 19.1403L19.3361 17.0028L15.5519 14.8582Z" fill="#6D6C70" fill-opacity="0.3"/>
</svg>
