<svg width="22" height="16" viewBox="0 0 22 16" fill="none" xmlns="http://www.w3.org/2000/svg">
<path d="M6.22222 2.66667H20.4444C20.6802 2.66667 20.9063 2.57302 21.073 2.40632C21.2397 2.23962 21.3333 2.01353 21.3333 1.77778C21.3333 1.54203 21.2397 1.31594 21.073 1.14924C20.9063 0.98254 20.6802 0.888889 20.4444 0.888889H6.22222C5.98647 0.888889 5.76038 0.98254 5.59368 1.14924C5.42698 1.31594 5.33333 1.54203 5.33333 1.77778C5.33333 2.01353 5.42698 2.23962 5.59368 2.40632C5.76038 2.57302 5.98647 2.66667 6.22222 2.66667Z" fill="#131418"/>
<path d="M20.4444 7.11111H6.22222C5.98647 7.11111 5.76038 7.20476 5.59368 7.37146C5.42698 7.53816 5.33333 7.76425 5.33333 8C5.33333 8.23575 5.42698 8.46184 5.59368 8.62854C5.76038 8.79524 5.98647 8.88889 6.22222 8.88889H20.4444C20.6802 8.88889 20.9063 8.79524 21.073 8.62854C21.2397 8.46184 21.3333 8.23575 21.3333 8C21.3333 7.76425 21.2397 7.53816 21.073 7.37146C20.9063 7.20476 20.6802 7.11111 20.4444 7.11111Z" fill="#131418"/>
<path d="M20.4444 13.3333H6.22222C5.98647 13.3333 5.76038 13.427 5.59368 13.5937C5.42698 13.7604 5.33333 13.9865 5.33333 14.2222C5.33333 14.458 5.42698 14.6841 5.59368 14.8508C5.76038 15.0175 5.98647 15.1111 6.22222 15.1111H20.4444C20.6802 15.1111 20.9063 15.0175 21.073 14.8508C21.2397 14.6841 21.3333 14.458 21.3333 14.2222C21.3333 13.9865 21.2397 13.7604 21.073 13.5937C20.9063 13.427 20.6802 13.3333 20.4444 13.3333Z" fill="#131418"/>
<path d="M1.77778 3.55556C2.75962 3.55556 3.55556 2.75962 3.55556 1.77778C3.55556 0.795938 2.75962 0 1.77778 0C0.795938 0 0 0.795938 0 1.77778C0 2.75962 0.795938 3.55556 1.77778 3.55556Z" fill="#131418"/>
<path d="M1.77778 9.77778C2.75962 9.77778 3.55556 8.98184 3.55556 8C3.55556 7.01816 2.75962 6.22222 1.77778 6.22222C0.795938 6.22222 0 7.01816 0 8C0 8.98184 0.795938 9.77778 1.77778 9.77778Z" fill="#131418"/>
<path d="M1.77778 16C2.75962 16 3.55556 15.2041 3.55556 14.2222C3.55556 13.2404 2.75962 12.4444 1.77778 12.4444C0.795938 12.4444 0 13.2404 0 14.2222C0 15.2041 0.795938 16 1.77778 16Z" fill="#131418"/>
</svg>
