<svg width="60" height="60" viewBox="0 0 60 60" fill="none" xmlns="http://www.w3.org/2000/svg">
<circle cx="30" cy="30" r="30" fill="#EFEFEF"/>
<path d="M34.9129 20C33.9071 20.0156 32.9233 20.2964 32.0607 20.814C31.1981 21.3315 30.4874 22.0675 30.0003 22.9476C29.5131 22.0675 28.8024 21.3315 27.9398 20.814C27.0772 20.2964 26.0934 20.0156 25.0876 20C23.4842 20.0697 21.9736 20.7711 20.8857 21.951C19.7978 23.1309 19.2212 24.6934 19.2817 26.2972C19.2817 32.3487 29.0677 39.3381 29.484 39.6347L30.0003 40L30.5165 39.6347C30.9328 39.3399 40.7189 32.3487 40.7189 26.2972C40.7794 24.6934 40.2027 23.1309 39.1148 21.951C38.027 20.7711 36.5163 20.0697 34.9129 20ZM30.0003 37.8009C27.0946 35.6304 21.0681 30.2979 21.0681 26.2972C21.007 25.167 21.3953 24.0585 22.1483 23.2135C22.9013 22.3685 23.9579 21.8555 25.0876 21.7864C26.2173 21.8555 27.2738 22.3685 28.0268 23.2135C28.7798 24.0585 29.1681 25.167 29.107 26.2972H30.8935C30.8324 25.167 31.2207 24.0585 31.9737 23.2135C32.7267 22.3685 33.7832 21.8555 34.9129 21.7864C36.0427 21.8555 37.0992 22.3685 37.8522 23.2135C38.6052 24.0585 38.9935 25.167 38.9324 26.2972C38.9324 30.2997 32.9059 35.6304 30.0003 37.8009Z" fill="#6D6C70"/>
</svg>
